<svg xmlns="http://www.w3.org/2000/svg" xmlns:xlink="http://www.w3.org/1999/xlink" width="500" zoomAndPan="magnify" viewBox="0 0 375 374.999991" height="500" preserveAspectRatio="xMidYMid meet" version="1.0"><defs><g/><clipPath id="c439024b6a"><path d="M 1 0.238281 L 44 0.238281 L 44 65 L 1 65 Z M 1 0.238281 " clip-rule="nonzero"/></clipPath><clipPath id="767e174866"><path d="M 212 17 L 260 17 L 260 81.601562 L 212 81.601562 Z M 212 17 " clip-rule="nonzero"/></clipPath><clipPath id="5a9ba92985"><rect x="0" width="262" y="0" height="82"/></clipPath><clipPath id="41b07647d3"><path d="M 320.394531 195.910156 L 335.542969 195.910156 L 335.542969 211.058594 L 320.394531 211.058594 Z M 320.394531 195.910156 " clip-rule="nonzero"/></clipPath><clipPath id="ccecaf00bc"><path d="M 327.96875 195.910156 C 323.785156 195.910156 320.394531 199.300781 320.394531 203.484375 C 320.394531 207.667969 323.785156 211.058594 327.96875 211.058594 C 332.152344 211.058594 335.542969 207.667969 335.542969 203.484375 C 335.542969 199.300781 332.152344 195.910156 327.96875 195.910156 Z M 327.96875 195.910156 " clip-rule="nonzero"/></clipPath><clipPath id="6e43eb4a72"><path d="M 0.394531 0.910156 L 15.542969 0.910156 L 15.542969 16.058594 L 0.394531 16.058594 Z M 0.394531 0.910156 " clip-rule="nonzero"/></clipPath><clipPath id="03e88d40b7"><path d="M 7.96875 0.910156 C 3.785156 0.910156 0.394531 4.300781 0.394531 8.484375 C 0.394531 12.667969 3.785156 16.058594 7.96875 16.058594 C 12.152344 16.058594 15.542969 12.667969 15.542969 8.484375 C 15.542969 4.300781 12.152344 0.910156 7.96875 0.910156 Z M 7.96875 0.910156 " clip-rule="nonzero"/></clipPath><clipPath id="7dfbb03382"><rect x="0" width="16" y="0" height="17"/></clipPath></defs><g transform="matrix(1, 0, 0, 1, 53, 150)"><g clip-path="url(#5a9ba92985)"><g clip-path="url(#c439024b6a)"><g fill="#ffffff" fill-opacity="1"><g transform="translate(1.10659, 63.862767)"><g><path d="M 23.578125 -7.90625 C 22.722656 -9.351562 21.773438 -10.703125 20.734375 -11.953125 C 19.703125 -13.203125 18.492188 -14.304688 17.109375 -15.265625 C 16.734375 -15.535156 16.359375 -15.671875 15.984375 -15.671875 C 15.929688 -15.671875 15.863281 -15.65625 15.78125 -15.625 C 15.707031 -15.601562 15.617188 -15.59375 15.515625 -15.59375 C 14.921875 -15.476562 14.492188 -15.15625 14.234375 -14.625 C 13.535156 -13.457031 13 -12.421875 12.625 -11.515625 C 12.257812 -10.609375 12.046875 -9.4375 11.984375 -8 C 11.929688 -7.144531 11.929688 -6.300781 11.984375 -5.46875 C 12.046875 -4.644531 12.101562 -3.804688 12.15625 -2.953125 C 12.257812 -2.046875 12.046875 -1.378906 11.515625 -0.953125 C 11.347656 -0.796875 11.15625 -0.691406 10.9375 -0.640625 C 10.726562 -0.585938 10.492188 -0.535156 10.234375 -0.484375 C 9.535156 -0.316406 8.519531 -0.15625 7.1875 0 C 5.863281 0.15625 4.597656 0.144531 3.390625 -0.03125 C 2.191406 -0.21875 1.410156 -0.765625 1.046875 -1.671875 C 0.554688 -2.953125 0.257812 -4.351562 0.15625 -5.875 C 0.0507812 -7.394531 0.0234375 -8.941406 0.078125 -10.515625 C 0.128906 -12.085938 0.128906 -13.539062 0.078125 -14.875 C 0.0234375 -17.375 0 -19.875 0 -22.375 C 0 -24.882812 0 -27.390625 0 -29.890625 C 0.0507812 -34.847656 0.101562 -39.816406 0.15625 -44.796875 C 0.207031 -49.785156 0.207031 -54.785156 0.15625 -59.796875 C 0.15625 -61.710938 1.035156 -62.644531 2.796875 -62.59375 C 3.429688 -62.59375 4.242188 -62.644531 5.234375 -62.75 C 6.222656 -62.851562 7.207031 -62.890625 8.1875 -62.859375 C 9.175781 -62.835938 10.03125 -62.65625 10.75 -62.3125 C 11.46875 -61.96875 11.851562 -61.34375 11.90625 -60.4375 C 12.019531 -59.050781 12.0625 -57.632812 12.03125 -56.1875 C 12 -54.75 11.984375 -53.335938 11.984375 -51.953125 C 11.984375 -49.554688 11.984375 -47.171875 11.984375 -44.796875 C 11.984375 -42.429688 11.957031 -40.050781 11.90625 -37.65625 C 11.90625 -36.695312 12.035156 -35.910156 12.296875 -35.296875 C 12.566406 -34.679688 13.050781 -34.050781 13.75 -33.40625 C 14.125 -33.039062 14.578125 -32.859375 15.109375 -32.859375 C 15.691406 -32.859375 16.195312 -33.070312 16.625 -33.5 C 18.8125 -35.84375 20.992188 -38.195312 23.171875 -40.5625 C 25.359375 -42.9375 27.707031 -45.109375 30.21875 -47.078125 C 32.082031 -48.628906 34.132812 -49.242188 36.375 -48.921875 C 37.175781 -48.867188 38.066406 -48.664062 39.046875 -48.3125 C 40.035156 -47.96875 40.796875 -47.476562 41.328125 -46.84375 C 41.859375 -46.207031 41.804688 -45.378906 41.171875 -44.359375 C 40.953125 -43.992188 40.679688 -43.648438 40.359375 -43.328125 C 40.046875 -43.003906 39.726562 -42.710938 39.40625 -42.453125 C 38.394531 -41.546875 37.195312 -40.476562 35.8125 -39.25 C 34.425781 -38.019531 33.078125 -36.6875 31.765625 -35.25 C 30.460938 -33.8125 29.367188 -32.316406 28.484375 -30.765625 C 27.609375 -29.222656 27.128906 -27.664062 27.046875 -26.09375 C 26.972656 -24.519531 27.523438 -22.960938 28.703125 -21.421875 C 30.992188 -18.328125 33.375 -15.128906 35.84375 -11.828125 C 38.320312 -8.523438 40.3125 -5.085938 41.8125 -1.515625 C 40.789062 -0.828125 39.570312 -0.46875 38.15625 -0.4375 C 36.75 -0.414062 35.3125 -0.523438 33.84375 -0.765625 C 32.382812 -1.003906 31.066406 -1.148438 29.890625 -1.203125 C 28.722656 -1.304688 27.789062 -1.753906 27.09375 -2.546875 C 26.40625 -3.347656 25.769531 -4.234375 25.1875 -5.203125 C 24.96875 -5.679688 24.710938 -6.144531 24.421875 -6.59375 C 24.128906 -7.050781 23.847656 -7.488281 23.578125 -7.90625 Z M 23.578125 -7.90625 "/></g></g></g></g><g fill="#ffffff" fill-opacity="1"><g transform="translate(43.06379, 63.862767)"><g><path d="M 39.09375 -2 C 38.664062 -1.46875 38 -1.175781 37.09375 -1.125 C 36.238281 -1.125 35.410156 -1.296875 34.609375 -1.640625 C 33.804688 -1.984375 33.019531 -2.328125 32.25 -2.671875 C 31.476562 -3.023438 30.640625 -3.203125 29.734375 -3.203125 C 29.148438 -3.203125 28.5625 -3.160156 27.96875 -3.078125 C 27.382812 -2.992188 26.851562 -2.898438 26.375 -2.796875 L 25.984375 -2.71875 C 24.429688 -2.445312 22.921875 -2.097656 21.453125 -1.671875 C 19.992188 -1.253906 18.625 -0.832031 17.34375 -0.40625 C 16.757812 -0.238281 16.160156 -0.101562 15.546875 0 C 14.929688 0.101562 14.304688 0.15625 13.671875 0.15625 C 9.773438 0.15625 6.5 -1.382812 3.84375 -4.46875 C 0.800781 -7.9375 -0.398438 -12.203125 0.234375 -17.265625 C 0.503906 -19.285156 1.210938 -21.09375 2.359375 -22.6875 C 3.503906 -24.289062 4.957031 -25.519531 6.71875 -26.375 C 7.625 -26.800781 8.582031 -27.109375 9.59375 -27.296875 C 10.601562 -27.484375 11.640625 -27.65625 12.703125 -27.8125 C 12.972656 -27.8125 13.210938 -27.820312 13.421875 -27.84375 C 13.640625 -27.875 13.851562 -27.921875 14.0625 -27.984375 L 24.546875 -29.421875 C 25.929688 -29.628906 26.796875 -30.039062 27.140625 -30.65625 C 27.484375 -31.269531 27.679688 -31.765625 27.734375 -32.140625 C 27.835938 -33.046875 27.554688 -33.867188 26.890625 -34.609375 C 26.234375 -35.359375 25.453125 -35.863281 24.546875 -36.125 C 22.890625 -36.769531 21.179688 -37.09375 19.421875 -37.09375 L 19.1875 -37.09375 C 17.53125 -37.039062 15.957031 -36.800781 14.46875 -36.375 C 12.976562 -35.945312 11.539062 -35.441406 10.15625 -34.859375 C 9.726562 -34.640625 9.222656 -34.53125 8.640625 -34.53125 C 7.460938 -34.53125 6.300781 -34.914062 5.15625 -35.6875 C 4.007812 -36.457031 3.195312 -37.378906 2.71875 -38.453125 C 2.5 -38.878906 2.40625 -39.238281 2.4375 -39.53125 C 2.46875 -39.820312 2.507812 -40.046875 2.5625 -40.203125 C 2.875 -40.898438 3.492188 -41.523438 4.421875 -42.078125 C 5.359375 -42.640625 6.347656 -43.117188 7.390625 -43.515625 C 8.429688 -43.921875 9.296875 -44.226562 9.984375 -44.4375 C 13.828125 -45.664062 17.691406 -46.28125 21.578125 -46.28125 C 21.953125 -46.28125 22.328125 -46.28125 22.703125 -46.28125 C 23.078125 -46.28125 23.453125 -46.253906 23.828125 -46.203125 C 25.691406 -46.097656 27.753906 -45.738281 30.015625 -45.125 C 32.273438 -44.507812 34.207031 -43.347656 35.8125 -41.640625 C 37.675781 -39.617188 38.796875 -37.597656 39.171875 -35.578125 C 39.597656 -33.285156 39.742188 -30.898438 39.609375 -28.421875 C 39.472656 -25.941406 39.429688 -23.53125 39.484375 -21.1875 C 39.484375 -18.789062 39.484375 -16.378906 39.484375 -13.953125 C 39.484375 -11.523438 39.507812 -9.140625 39.5625 -6.796875 C 39.5625 -5.992188 39.601562 -5.140625 39.6875 -4.234375 C 39.769531 -3.328125 39.570312 -2.582031 39.09375 -2 Z M 27.5 -15.75 C 27.925781 -16.601562 28.054688 -17.320312 27.890625 -17.90625 C 27.734375 -18.488281 27.578125 -18.890625 27.421875 -19.109375 C 27.203125 -19.421875 26.863281 -19.722656 26.40625 -20.015625 C 25.957031 -20.316406 25.335938 -20.492188 24.546875 -20.546875 L 23.90625 -20.625 C 23.425781 -20.675781 22.929688 -20.703125 22.421875 -20.703125 C 21.910156 -20.703125 21.363281 -20.703125 20.78125 -20.703125 C 19.875 -20.703125 18.78125 -20.609375 17.5 -20.421875 C 16.226562 -20.234375 15.003906 -19.738281 13.828125 -18.9375 C 13.023438 -18.300781 12.519531 -17.640625 12.3125 -16.953125 C 12.09375 -16.359375 12.066406 -15.609375 12.234375 -14.703125 C 12.609375 -13.054688 13.328125 -11.78125 14.390625 -10.875 C 15.453125 -9.96875 16.726562 -9.515625 18.21875 -9.515625 C 20.09375 -9.515625 21.929688 -10.125 23.734375 -11.34375 C 25.546875 -12.570312 26.800781 -14.039062 27.5 -15.75 Z M 27.5 -15.75 "/></g></g></g><g fill="#ffffff" fill-opacity="1"><g transform="translate(82.943042, 63.862767)"><g><path d="M 40.84375 -0.40625 C 39.457031 -0.457031 38.054688 -0.46875 36.640625 -0.4375 C 35.234375 -0.414062 33.8125 -0.40625 32.375 -0.40625 C 32.050781 -0.40625 31.796875 -0.960938 31.609375 -2.078125 C 31.421875 -3.191406 31.300781 -4.65625 31.25 -6.46875 C 31.195312 -8.28125 31.171875 -10.238281 31.171875 -12.34375 C 31.171875 -14.457031 31.195312 -16.5 31.25 -18.46875 C 31.300781 -20.4375 31.34375 -22.140625 31.375 -23.578125 C 31.40625 -25.015625 31.421875 -25.945312 31.421875 -26.375 C 31.359375 -29.363281 30.890625 -31.628906 30.015625 -33.171875 C 29.140625 -34.722656 28.046875 -35.789062 26.734375 -36.375 C 25.429688 -36.957031 24.140625 -37.25 22.859375 -37.25 L 22.703125 -37.25 C 19.660156 -37.25 17.191406 -36.222656 15.296875 -34.171875 C 13.410156 -32.117188 12.414062 -29.441406 12.3125 -26.140625 C 12.257812 -24.003906 12.234375 -21.867188 12.234375 -19.734375 C 12.234375 -17.609375 12.234375 -15.476562 12.234375 -13.34375 C 12.285156 -11.695312 12.429688 -9.875 12.671875 -7.875 C 12.910156 -5.875 12.867188 -4.046875 12.546875 -2.390625 C 12.335938 -1.171875 11.84375 -0.519531 11.0625 -0.4375 C 10.289062 -0.351562 9.425781 -0.285156 8.46875 -0.234375 C 7.832031 -0.179688 6.992188 -0.113281 5.953125 -0.03125 C 4.910156 0.0390625 3.894531 0 2.90625 -0.15625 C 1.925781 -0.320312 1.195312 -0.722656 0.71875 -1.359375 C 0.132812 -2.210938 -0.078125 -3.238281 0.078125 -4.4375 C 0.234375 -5.632812 0.34375 -6.6875 0.40625 -7.59375 C 0.613281 -10.519531 0.769531 -13.503906 0.875 -16.546875 C 1.039062 -22.304688 0.882812 -28.035156 0.40625 -33.734375 C 0.289062 -34.847656 0.207031 -36.148438 0.15625 -37.640625 C 0.101562 -39.140625 0.222656 -40.566406 0.515625 -41.921875 C 0.804688 -43.285156 1.390625 -44.351562 2.265625 -45.125 C 3.148438 -45.894531 4.472656 -46.117188 6.234375 -45.796875 C 7.671875 -45.535156 9.082031 -45.203125 10.46875 -44.796875 C 11.851562 -44.398438 13.265625 -44.070312 14.703125 -43.8125 C 14.816406 -43.8125 14.9375 -43.8125 15.0625 -43.8125 C 15.195312 -43.8125 15.289062 -43.8125 15.34375 -43.8125 C 16.351562 -43.8125 17.363281 -44.007812 18.375 -44.40625 C 19.394531 -44.800781 20.4375 -45.210938 21.5 -45.640625 C 22.570312 -46.066406 23.640625 -46.304688 24.703125 -46.359375 C 27.796875 -46.628906 30.726562 -46.097656 33.5 -44.765625 C 35.894531 -43.648438 37.742188 -42.1875 39.046875 -40.375 C 40.359375 -38.5625 41.304688 -36.5625 41.890625 -34.375 C 42.472656 -32.1875 42.84375 -29.921875 43 -27.578125 C 43.164062 -25.234375 43.300781 -22.914062 43.40625 -20.625 C 43.40625 -20.144531 43.457031 -19.15625 43.5625 -17.65625 C 43.664062 -16.164062 43.734375 -14.445312 43.765625 -12.5 C 43.796875 -10.5625 43.753906 -8.671875 43.640625 -6.828125 C 43.535156 -4.992188 43.28125 -3.460938 42.875 -2.234375 C 42.476562 -1.015625 41.882812 -0.40625 41.09375 -0.40625 C 41.039062 -0.40625 41 -0.40625 40.96875 -0.40625 C 40.9375 -0.40625 40.894531 -0.40625 40.84375 -0.40625 Z M 40.84375 -0.40625 "/></g></g></g><g fill="#ffffff" fill-opacity="1"><g transform="translate(126.898253, 63.862767)"><g><path d="M 31.328125 -0.5625 C 28.773438 -0.394531 26.21875 -0.257812 23.65625 -0.15625 C 21.101562 -0.0507812 18.546875 0 15.984375 0 C 11.617188 0 8.019531 -1.515625 5.1875 -4.546875 C 2.363281 -7.585938 0.769531 -11.613281 0.40625 -16.625 C 0.0820312 -21.15625 -0.0234375 -25.710938 0.078125 -30.296875 C 0.179688 -34.878906 0.257812 -39.4375 0.3125 -43.96875 C 0.3125 -44.65625 0.6875 -45.144531 1.4375 -45.4375 C 2.1875 -45.738281 3.101562 -45.925781 4.1875 -46 C 5.28125 -46.082031 6.320312 -46.082031 7.3125 -46 C 8.300781 -45.925781 9.035156 -45.890625 9.515625 -45.890625 C 10.578125 -45.890625 11.332031 -45.515625 11.78125 -44.765625 C 12.238281 -44.015625 12.503906 -43.09375 12.578125 -42 C 12.660156 -40.914062 12.660156 -39.828125 12.578125 -38.734375 C 12.503906 -37.640625 12.46875 -36.769531 12.46875 -36.125 C 12.414062 -33.039062 12.320312 -29.960938 12.1875 -26.890625 C 12.050781 -23.828125 12.171875 -20.78125 12.546875 -17.75 C 12.816406 -15.5625 13.628906 -13.734375 14.984375 -12.265625 C 16.347656 -10.804688 18.175781 -9.992188 20.46875 -9.828125 C 20.570312 -9.828125 20.675781 -9.828125 20.78125 -9.828125 C 20.882812 -9.828125 20.992188 -9.828125 21.109375 -9.828125 C 23.554688 -9.828125 25.660156 -10.707031 27.421875 -12.46875 C 29.179688 -14.226562 30.085938 -16.382812 30.140625 -18.9375 C 30.242188 -22.5625 30.320312 -26.226562 30.375 -29.9375 C 30.425781 -33.644531 30.398438 -37.492188 30.296875 -41.484375 C 30.242188 -43.347656 30.484375 -44.546875 31.015625 -45.078125 C 31.546875 -45.617188 32.410156 -45.992188 33.609375 -46.203125 C 34.804688 -46.421875 36.054688 -46.460938 37.359375 -46.328125 C 38.671875 -46.191406 39.789062 -45.859375 40.71875 -45.328125 C 41.65625 -44.796875 42.125 -44.050781 42.125 -43.09375 C 42.125 -39.519531 42.070312 -35.945312 41.96875 -32.375 C 41.863281 -28.800781 41.753906 -25.226562 41.640625 -21.65625 C 41.585938 -19.15625 41.601562 -16.675781 41.6875 -14.21875 C 41.769531 -11.769531 41.992188 -9.296875 42.359375 -6.796875 C 42.679688 -4.878906 42.519531 -3.476562 41.875 -2.59375 C 41.238281 -1.71875 40.332031 -1.160156 39.15625 -0.921875 C 37.988281 -0.679688 36.695312 -0.585938 35.28125 -0.640625 C 33.875 -0.691406 32.554688 -0.664062 31.328125 -0.5625 Z M 31.328125 -0.5625 "/></g></g></g><g fill="#ffffff" fill-opacity="1"><g transform="translate(169.57473, 63.862767)"><g><path d="M 40.84375 -0.40625 C 39.457031 -0.457031 38.054688 -0.46875 36.640625 -0.4375 C 35.234375 -0.414062 33.8125 -0.40625 32.375 -0.40625 C 32.050781 -0.40625 31.796875 -0.960938 31.609375 -2.078125 C 31.421875 -3.191406 31.300781 -4.65625 31.25 -6.46875 C 31.195312 -8.28125 31.171875 -10.238281 31.171875 -12.34375 C 31.171875 -14.457031 31.195312 -16.5 31.25 -18.46875 C 31.300781 -20.4375 31.34375 -22.140625 31.375 -23.578125 C 31.40625 -25.015625 31.421875 -25.945312 31.421875 -26.375 C 31.359375 -29.363281 30.890625 -31.628906 30.015625 -33.171875 C 29.140625 -34.722656 28.046875 -35.789062 26.734375 -36.375 C 25.429688 -36.957031 24.140625 -37.25 22.859375 -37.25 L 22.703125 -37.25 C 19.660156 -37.25 17.191406 -36.222656 15.296875 -34.171875 C 13.410156 -32.117188 12.414062 -29.441406 12.3125 -26.140625 C 12.257812 -24.003906 12.234375 -21.867188 12.234375 -19.734375 C 12.234375 -17.609375 12.234375 -15.476562 12.234375 -13.34375 C 12.285156 -11.695312 12.429688 -9.875 12.671875 -7.875 C 12.910156 -5.875 12.867188 -4.046875 12.546875 -2.390625 C 12.335938 -1.171875 11.84375 -0.519531 11.0625 -0.4375 C 10.289062 -0.351562 9.425781 -0.285156 8.46875 -0.234375 C 7.832031 -0.179688 6.992188 -0.113281 5.953125 -0.03125 C 4.910156 0.0390625 3.894531 0 2.90625 -0.15625 C 1.925781 -0.320312 1.195312 -0.722656 0.71875 -1.359375 C 0.132812 -2.210938 -0.078125 -3.238281 0.078125 -4.4375 C 0.234375 -5.632812 0.34375 -6.6875 0.40625 -7.59375 C 0.613281 -10.519531 0.769531 -13.503906 0.875 -16.546875 C 1.039062 -22.304688 0.882812 -28.035156 0.40625 -33.734375 C 0.289062 -34.847656 0.207031 -36.148438 0.15625 -37.640625 C 0.101562 -39.140625 0.222656 -40.566406 0.515625 -41.921875 C 0.804688 -43.285156 1.390625 -44.351562 2.265625 -45.125 C 3.148438 -45.894531 4.472656 -46.117188 6.234375 -45.796875 C 7.671875 -45.535156 9.082031 -45.203125 10.46875 -44.796875 C 11.851562 -44.398438 13.265625 -44.070312 14.703125 -43.8125 C 14.816406 -43.8125 14.9375 -43.8125 15.0625 -43.8125 C 15.195312 -43.8125 15.289062 -43.8125 15.34375 -43.8125 C 16.351562 -43.8125 17.363281 -44.007812 18.375 -44.40625 C 19.394531 -44.800781 20.4375 -45.210938 21.5 -45.640625 C 22.570312 -46.066406 23.640625 -46.304688 24.703125 -46.359375 C 27.796875 -46.628906 30.726562 -46.097656 33.5 -44.765625 C 35.894531 -43.648438 37.742188 -42.1875 39.046875 -40.375 C 40.359375 -38.5625 41.304688 -36.5625 41.890625 -34.375 C 42.472656 -32.1875 42.84375 -29.921875 43 -27.578125 C 43.164062 -25.234375 43.300781 -22.914062 43.40625 -20.625 C 43.40625 -20.144531 43.457031 -19.15625 43.5625 -17.65625 C 43.664062 -16.164062 43.734375 -14.445312 43.765625 -12.5 C 43.796875 -10.5625 43.753906 -8.671875 43.640625 -6.828125 C 43.535156 -4.992188 43.28125 -3.460938 42.875 -2.234375 C 42.476562 -1.015625 41.882812 -0.40625 41.09375 -0.40625 C 41.039062 -0.40625 41 -0.40625 40.96875 -0.40625 C 40.9375 -0.40625 40.894531 -0.40625 40.84375 -0.40625 Z M 40.84375 -0.40625 "/></g></g></g><g clip-path="url(#767e174866)"><g fill="#ffffff" fill-opacity="1"><g transform="translate(213.52994, 63.862767)"><g><path d="M 46.203125 -34.453125 C 46.203125 -30.828125 46.226562 -27.175781 46.28125 -23.5 C 46.332031 -19.820312 46.304688 -16.171875 46.203125 -12.546875 C 46.148438 -10.523438 46.125 -8.421875 46.125 -6.234375 C 46.125 -4.046875 45.960938 -1.890625 45.640625 0.234375 C 45.328125 2.367188 44.660156 4.367188 43.640625 6.234375 C 42.304688 8.679688 40.546875 10.71875 38.359375 12.34375 C 36.179688 13.96875 33.769531 15.179688 31.125 15.984375 C 28.488281 16.785156 25.816406 17.1875 23.109375 17.1875 C 22.890625 17.1875 22.671875 17.1875 22.453125 17.1875 C 22.242188 17.1875 22.035156 17.1875 21.828125 17.1875 C 20.066406 17.082031 18.316406 16.9375 16.578125 16.75 C 14.847656 16.5625 13.132812 16.203125 11.4375 15.671875 C 10.738281 15.453125 9.910156 15.171875 8.953125 14.828125 C 7.992188 14.484375 7.085938 14.070312 6.234375 13.59375 C 5.378906 13.113281 4.78125 12.515625 4.4375 11.796875 C 4.09375 11.078125 4.160156 10.207031 4.640625 9.1875 C 5.015625 8.445312 5.382812 7.6875 5.75 6.90625 C 6.125 6.132812 6.5 5.378906 6.875 4.640625 C 7.300781 3.835938 7.859375 3.421875 8.546875 3.390625 C 9.242188 3.367188 10.019531 3.554688 10.875 3.953125 C 11.726562 4.359375 12.550781 4.800781 13.34375 5.28125 C 14.144531 5.757812 14.8125 6.078125 15.34375 6.234375 C 16.46875 6.609375 17.628906 6.898438 18.828125 7.109375 C 20.023438 7.328125 21.207031 7.4375 22.375 7.4375 C 25.3125 7.4375 27.925781 6.675781 30.21875 5.15625 C 32.507812 3.632812 34.160156 1.488281 35.171875 -1.28125 C 35.273438 -1.539062 35.351562 -1.789062 35.40625 -2.03125 C 35.46875 -2.269531 35.46875 -2.5 35.40625 -2.71875 C 35.351562 -3.625 35.003906 -4.15625 34.359375 -4.3125 C 33.722656 -4.476562 32.992188 -4.453125 32.171875 -4.234375 C 31.347656 -4.023438 30.550781 -3.742188 29.78125 -3.390625 C 29.007812 -3.046875 28.410156 -2.820312 27.984375 -2.71875 C 26.753906 -2.34375 25.5 -2.035156 24.21875 -1.796875 C 22.9375 -1.554688 21.660156 -1.4375 20.390625 -1.4375 C 17.023438 -1.4375 14.039062 -2.289062 11.4375 -4 C 9.300781 -5.382812 7.40625 -6.953125 5.75 -8.703125 C 4.101562 -10.460938 2.90625 -12.171875 2.15625 -13.828125 C 0.0820312 -18.679688 -0.5 -23.503906 0.40625 -28.296875 C 1.3125 -33.097656 3.628906 -37.28125 7.359375 -40.84375 C 11.085938 -44.46875 15.375 -46.28125 20.21875 -46.28125 C 23.894531 -46.28125 27.546875 -45.269531 31.171875 -43.25 C 31.441406 -43.03125 31.789062 -42.921875 32.21875 -42.921875 C 32.851562 -42.921875 33.382812 -43.1875 33.8125 -43.71875 C 34.082031 -44.039062 34.734375 -44.375 35.765625 -44.71875 C 36.804688 -45.070312 38.03125 -45.378906 39.4375 -45.640625 C 40.851562 -45.910156 42.203125 -46.046875 43.484375 -46.046875 C 44.285156 -46.046875 44.84375 -45.988281 45.15625 -45.875 C 45.476562 -45.769531 45.75 -45.347656 45.96875 -44.609375 C 46.226562 -43.753906 46.304688 -42.753906 46.203125 -41.609375 C 46.097656 -40.460938 46.070312 -39.4375 46.125 -38.53125 C 46.125 -37.832031 46.125 -37.148438 46.125 -36.484375 C 46.125 -35.828125 46.148438 -35.148438 46.203125 -34.453125 Z M 32.0625 -15.1875 C 34.238281 -17.800781 35.328125 -20.863281 35.328125 -24.375 C 35.328125 -26.71875 34.804688 -28.820312 33.765625 -30.6875 C 32.734375 -32.5625 31.347656 -34.03125 29.609375 -35.09375 C 27.878906 -36.15625 25.921875 -36.6875 23.734375 -36.6875 C 22.242188 -36.632812 20.804688 -36.316406 19.421875 -35.734375 C 18.035156 -35.148438 16.8125 -34.296875 15.75 -33.171875 C 13.238281 -30.617188 12.039062 -27.445312 12.15625 -23.65625 C 12.207031 -21.476562 12.789062 -19.425781 13.90625 -17.5 C 15.03125 -15.582031 16.457031 -14.035156 18.1875 -12.859375 C 19.914062 -11.691406 21.765625 -11.109375 23.734375 -11.109375 C 23.734375 -11.109375 23.75 -11.109375 23.78125 -11.109375 C 23.8125 -11.109375 23.828125 -11.109375 23.828125 -11.109375 C 27.023438 -11.109375 29.769531 -12.46875 32.0625 -15.1875 Z M 32.0625 -15.1875 "/></g></g></g></g></g></g><g clip-path="url(#41b07647d3)"><g clip-path="url(#ccecaf00bc)"><g transform="matrix(1, 0, 0, 1, 320, 195)"><g clip-path="url(#7dfbb03382)"><g clip-path="url(#6e43eb4a72)"><g clip-path="url(#03e88d40b7)"><path fill="#ffffff" d="M 0.394531 0.910156 L 15.542969 0.910156 L 15.542969 16.058594 L 0.394531 16.058594 Z M 0.394531 0.910156 " fill-opacity="1" fill-rule="nonzero"/></g></g></g></g></g></g></svg>